<svg width="23" height="23" viewBox="0 0 23 23" fill="none" xmlns="http://www.w3.org/2000/svg">
<g clip-path="url(#clip0_1_38)">
<path d="M4.97301 6.11397C4.78233 6.11124 4.60017 6.03451 4.46501 5.89997C4.33139 5.76465 4.25647 5.58214 4.25647 5.39197C4.25647 5.2018 4.33139 5.01929 4.46501 4.88397L7.94401 1.40797C8.08055 1.28287 8.26014 1.21536 8.44527 1.21954C8.63041 1.22372 8.80676 1.29927 8.93751 1.43041C9.06826 1.56154 9.14329 1.73813 9.14692 1.92327C9.15056 2.10842 9.08252 2.28781 8.95701 2.42397L5.48101 5.89997C5.34482 6.03295 5.16331 6.10941 4.97301 6.11397Z" fill="#49535B"/>
<path d="M18.031 6.11399C17.9355 6.1146 17.8408 6.09597 17.7527 6.0592C17.6646 6.02243 17.5847 5.96829 17.518 5.89999L14.039 2.42399C13.9723 2.35728 13.9193 2.27808 13.8832 2.19092C13.8471 2.10376 13.8286 2.01034 13.8286 1.91599C13.8286 1.82165 13.8471 1.72823 13.8832 1.64106C13.9193 1.5539 13.9723 1.4747 14.039 1.40799C14.1057 1.34128 14.1849 1.28836 14.272 1.25226C14.3592 1.21615 14.4526 1.19757 14.547 1.19757C14.6413 1.19757 14.7347 1.21615 14.8219 1.25226C14.9091 1.28836 14.9883 1.34128 15.055 1.40799L18.531 4.88699C18.6637 5.02218 18.738 5.20405 18.738 5.39349C18.738 5.58293 18.6637 5.76481 18.531 5.89999C18.3978 6.03263 18.2189 6.10921 18.031 6.11399Z" fill="#49535B"/>
<path d="M19.368 10.159H3.833C3.4811 10.2102 3.12243 10.1881 2.77947 10.0942C2.43651 10.0002 2.11666 9.83639 1.84 9.613C1.59753 9.32596 1.41566 8.99282 1.30533 8.63364C1.19499 8.27445 1.15849 7.89666 1.198 7.523C1.198 4.888 3.124 4.888 4.044 4.888H18.956C19.876 4.888 21.802 4.888 21.802 7.523C21.8422 7.89654 21.806 8.27435 21.6956 8.63346C21.5853 8.99258 21.403 9.32551 21.16 9.612C20.9139 9.81983 20.6282 9.97548 20.3202 10.0695C20.0121 10.1635 19.6882 10.194 19.368 10.159ZM4.044 8.721H19.176C19.607 8.731 20.01 8.731 20.144 8.596C20.211 8.529 20.355 8.296 20.355 7.523C20.355 6.44 20.087 6.323 18.946 6.323H4.044C2.904 6.323 2.635 6.438 2.635 7.523C2.635 8.299 2.788 8.529 2.846 8.596C3.15261 8.71996 3.48595 8.763 3.814 8.721H4.044Z" fill="#49535B"/>
<path d="M9.35401 17.538C9.16372 17.5367 8.9816 17.4605 8.84705 17.326C8.71249 17.1914 8.63632 17.0093 8.63501 16.819V13.417C8.63632 13.2267 8.71249 13.0446 8.84705 12.91C8.9816 12.7755 9.16372 12.6993 9.35401 12.698C9.5443 12.6993 9.72642 12.7755 9.86097 12.91C9.99553 13.0446 10.0717 13.2267 10.073 13.417V16.817C10.0734 16.9116 10.0551 17.0054 10.0191 17.0929C9.98316 17.1804 9.93024 17.26 9.86342 17.327C9.79661 17.394 9.7172 17.4471 9.62978 17.4833C9.54236 17.5196 9.44864 17.5381 9.35401 17.538Z" fill="#49535B"/>
<path d="M13.762 17.538C13.5717 17.5367 13.3896 17.4605 13.2551 17.326C13.1205 17.1914 13.0443 17.0093 13.043 16.819V13.417C13.0443 13.2267 13.1205 13.0446 13.2551 12.91C13.3896 12.7755 13.5717 12.6993 13.762 12.698C13.9523 12.6993 14.1344 12.7755 14.269 12.91C14.4035 13.0446 14.4797 13.2267 14.481 13.417V16.817C14.4814 16.9116 14.4631 17.0054 14.4271 17.0929C14.3912 17.1804 14.3383 17.26 14.2714 17.327C14.2046 17.394 14.1252 17.4471 14.0378 17.4833C13.9504 17.5196 13.8567 17.5381 13.762 17.538Z" fill="#49535B"/>
<path d="M14.27 21.802H8.49102C5.06002 21.802 4.29102 19.761 3.99602 17.988L2.64502 9.69802C2.61399 9.50985 2.65898 9.31706 2.7701 9.16206C2.88121 9.00706 3.04935 8.90255 3.23752 8.87152C3.42569 8.84049 3.61848 8.88548 3.77348 8.9966C3.92848 9.10772 4.03299 9.27585 4.06402 9.46402L5.41502 17.748C5.69302 19.448 6.26802 20.364 8.49102 20.364H14.27C16.733 20.364 17.011 19.501 17.327 17.834L18.935 9.44902C18.9518 9.35564 18.9872 9.26659 19.0392 9.18721C19.0912 9.10782 19.1586 9.03972 19.2375 8.98698C19.3164 8.93425 19.405 8.89795 19.4983 8.88026C19.5915 8.86257 19.6873 8.86385 19.78 8.88402C19.8728 8.90171 19.9611 8.93764 20.0398 8.98973C20.1185 9.04181 20.1861 9.10902 20.2387 9.18744C20.2913 9.26586 20.3277 9.35394 20.346 9.44657C20.3642 9.5392 20.3639 9.63452 20.345 9.72702L18.735 18.113C18.362 20.058 17.735 21.802 14.27 21.802Z" fill="#49535B"/>
</g>
<defs>
<clipPath id="clip0_1_38">
<rect width="23" height="23" fill="white"/>
</clipPath>
</defs>
</svg>
