<svg width="20" height="20" viewBox="0 0 20 20" fill="none" xmlns="http://www.w3.org/2000/svg">
<path d="M12.225 18.0416H3.51666C3.07421 18.0419 2.63979 17.9236 2.25855 17.6991C1.87731 17.4745 1.56318 17.152 1.34882 16.7649C1.13445 16.3779 1.02769 15.9405 1.03962 15.4982C1.05155 15.0559 1.18174 14.6249 1.41666 14.25L3.72499 10.5583C3.81529 10.3861 3.86247 10.1945 3.86247 9.99998C3.86247 9.80549 3.81529 9.6139 3.72499 9.44165L1.41666 5.74998C1.17956 5.37552 1.04818 4.94389 1.03645 4.50084C1.02471 4.05778 1.13305 3.6198 1.34999 3.23332C1.56213 2.84477 1.87565 2.52101 2.25718 2.29649C2.63871 2.07198 3.07398 1.9551 3.51666 1.95832H13.05C13.467 1.97428 13.8745 2.08822 14.2393 2.2909C14.6041 2.49359 14.9161 2.77932 15.15 3.12498L18.6333 8.69165C18.8621 9.09269 18.9733 9.55007 18.9541 10.0114C18.935 10.4727 18.7862 10.9193 18.525 11.3L14.2083 17.05C13.9665 17.346 13.6648 17.5874 13.3229 17.7583C12.9811 17.9292 12.6069 18.0258 12.225 18.0416ZM3.51666 3.20832C3.29679 3.206 3.08046 3.26377 2.89102 3.37538C2.70157 3.48699 2.5462 3.64821 2.44166 3.84165C2.33418 4.03371 2.28054 4.25122 2.28641 4.47123C2.29228 4.69124 2.35743 4.90559 2.47499 5.09165L4.78582 8.78332C4.99884 9.15644 5.11087 9.57867 5.11087 10.0083C5.11087 10.438 4.99884 10.8602 4.78582 11.2333L2.47749 14.925C2.35993 15.111 2.29478 15.3254 2.28891 15.5454C2.28304 15.7654 2.33668 15.9829 2.44416 16.175C2.5487 16.3684 2.70407 16.5296 2.89352 16.6413C3.08296 16.7529 3.29929 16.8106 3.51916 16.8083H12.2275C12.6058 16.7754 12.9574 16.5996 13.2108 16.3166L17.5275 10.5666C17.6395 10.3898 17.703 10.1866 17.7118 9.9775C17.7206 9.76837 17.6743 9.56059 17.5775 9.37498L14.0942 3.80832C13.9716 3.64375 13.8152 3.5073 13.6355 3.40813C13.4559 3.30896 13.2571 3.24935 13.0525 3.23332H3.51666V3.20832Z" fill="#7D848A"/>
</svg>
