<svg width="23" height="23" viewBox="0 0 23 23" fill="none" xmlns="http://www.w3.org/2000/svg">
<g clip-path="url(#clip0_1_25)">
<path d="M13.895 15.516H9.10401C8.91372 15.5147 8.7316 15.4385 8.59705 15.304C8.46249 15.1694 8.38632 14.9873 8.38501 14.797C8.38632 14.6067 8.46249 14.4246 8.59705 14.29C8.7316 14.1555 8.91372 14.0793 9.10401 14.078H13.895C14.0853 14.0793 14.2674 14.1555 14.402 14.29C14.5365 14.4246 14.6127 14.6067 14.614 14.797C14.6127 14.9873 14.5365 15.1694 14.402 15.304C14.2674 15.4385 14.0853 15.5147 13.895 15.516Z" fill="#49535B"/>
<path d="M11.5 17.969C11.3097 17.9677 11.1276 17.8915 10.993 17.757C10.8585 17.6224 10.7823 17.4403 10.781 17.25V12.459C10.7823 12.2687 10.8585 12.0866 10.993 11.952C11.1276 11.8175 11.3097 11.7413 11.5 11.74C11.6903 11.7413 11.8724 11.8175 12.007 11.952C12.1415 12.0866 12.2177 12.2687 12.219 12.459V17.25C12.2177 17.4403 12.1415 17.6224 12.007 17.757C11.8724 17.8915 11.6903 17.9677 11.5 17.969Z" fill="#49535B"/>
<path d="M4.98299 10.024C4.7931 10.0203 4.61165 9.94488 4.47499 9.813C4.37477 9.71171 4.30676 9.58303 4.27954 9.44316C4.25231 9.30329 4.26708 9.15849 4.32199 9.027L6.10499 4.772C6.13038 4.70659 6.15908 4.6425 6.19099 4.58C7.60899 1.313 9.41999 0.517004 12.621 1.744C12.711 1.77872 12.7929 1.8315 12.8617 1.89909C12.9305 1.96668 12.9847 2.04765 13.021 2.137C13.0589 2.22637 13.0784 2.32244 13.0784 2.4195C13.0784 2.51657 13.0589 2.61264 13.021 2.702L10.216 9.219C10.1591 9.34693 10.0664 9.45568 9.94916 9.53215C9.83188 9.60862 9.69499 9.64955 9.55499 9.65H6.82299C6.28789 9.64934 5.75822 9.75718 5.26599 9.967C5.17675 10.0058 5.08029 10.0253 4.98299 10.024ZM10.166 2.635C8.97799 2.635 8.24899 3.411 7.49199 5.175C7.48199 5.204 7.46299 5.232 7.45399 5.261L6.19999 8.242C6.41099 8.223 6.61199 8.213 6.82299 8.213H9.07499L11.385 2.846C10.992 2.71308 10.5808 2.64191 10.166 2.635Z" fill="#49535B"/>
<path d="M17.528 9.84202C17.4567 9.8418 17.3857 9.83205 17.317 9.81302C16.9434 9.70395 16.5561 9.64905 16.167 9.65002H9.55398C9.43502 9.64845 9.31824 9.61795 9.2137 9.56115C9.10917 9.50436 9.02003 9.42297 8.95398 9.32402C8.89076 9.22353 8.8525 9.10936 8.84241 8.99106C8.83232 8.87276 8.85069 8.75377 8.89598 8.64402L11.672 2.19502C11.7455 2.02139 11.8785 1.87967 12.0471 1.79535C12.2158 1.71102 12.409 1.68963 12.592 1.73502C12.707 1.77302 12.812 1.82102 12.927 1.86902L15.189 2.81802C16.2482 3.188 17.2018 3.80945 17.968 4.62902C18.0797 4.76096 18.1801 4.90213 18.268 5.05102C18.38 5.22772 18.47 5.41746 18.536 5.61602C18.5809 5.72123 18.6161 5.83035 18.641 5.94202C18.8867 7.11333 18.7307 8.33329 18.198 9.40502C18.1406 9.53493 18.0468 9.64539 17.9278 9.72297C17.8089 9.80055 17.67 9.84191 17.528 9.84202ZM10.647 8.21302H16.176C16.4776 8.2145 16.7785 8.24025 17.076 8.29002C17.3314 7.65786 17.3916 6.96372 17.249 6.29702C17.23 6.21102 17.211 6.17202 17.201 6.13402C17.1638 6.02407 17.1156 5.91819 17.057 5.81802C17.0008 5.72017 16.9366 5.62718 16.865 5.54002C16.2452 4.90407 15.4833 4.42426 14.642 4.14002L12.742 3.34002L10.647 8.21302Z" fill="#49535B"/>
<path d="M15.238 21.802H7.76297C7.50659 21.8009 7.25049 21.7849 6.99597 21.754C3.63197 21.524 1.71597 19.607 1.48597 16.205C1.45409 15.9636 1.43805 15.7204 1.43797 15.477V13.613C1.43506 12.903 1.57275 12.1995 1.8431 11.543C2.11344 10.8866 2.51109 10.2901 3.01311 9.78811C3.51512 9.28609 4.11157 8.88844 4.76804 8.6181C5.42452 8.34775 6.12802 8.21006 6.83797 8.21297H16.191C16.7203 8.21 17.247 8.28755 17.753 8.44297C18.8582 8.7853 19.8254 9.47122 20.514 10.401C21.2026 11.3308 21.5768 12.456 21.582 13.613V15.477C21.582 15.688 21.572 15.889 21.563 16.077C21.352 19.828 19.167 21.802 15.238 21.802ZM6.82397 9.65097C6.30331 9.64899 5.7874 9.75014 5.30604 9.94859C4.82467 10.147 4.38738 10.4389 4.0194 10.8072C3.65141 11.1756 3.36003 11.6132 3.16206 12.0947C2.96409 12.5763 2.86346 13.0923 2.86597 13.613V15.477C2.86597 15.677 2.88497 15.877 2.90397 16.071C3.08597 18.802 4.42797 20.144 7.12097 20.326C7.3308 20.3548 7.54219 20.3709 7.75397 20.374H15.228C18.391 20.374 19.943 18.984 20.096 16.014C20.106 15.841 20.115 15.669 20.115 15.477V13.613C20.1112 12.7636 19.8371 11.9375 19.3324 11.2543C18.8277 10.5711 18.1187 10.0663 17.308 9.81297C16.9344 9.7039 16.5471 9.64901 16.158 9.64997L6.82397 9.65097Z" fill="#49535B"/>
<path d="M2.14698 14.327C1.9567 14.3257 1.77457 14.2495 1.64002 14.1149C1.50546 13.9804 1.42929 13.7983 1.42798 13.608V10.801C1.42656 9.33786 1.93322 7.91965 2.86141 6.78864C3.78959 5.65764 5.0817 4.88402 6.51698 4.59997C6.64524 4.5768 6.77733 4.58759 6.90013 4.63127C7.02293 4.67496 7.13217 4.75001 7.21698 4.84897C7.29878 4.94963 7.35175 5.07058 7.37024 5.19896C7.38873 5.32734 7.37205 5.45833 7.32198 5.57797L5.64498 9.58797C5.57036 9.75641 5.4376 9.89237 5.27098 9.97097C4.5591 10.2775 3.9525 10.7857 3.52602 11.4329C3.09954 12.08 2.87183 12.8379 2.87098 13.613C2.86633 13.8026 2.78825 13.983 2.65319 14.1162C2.51814 14.2494 2.33665 14.325 2.14698 14.327ZM5.36698 6.53597C4.75236 6.88156 4.21968 7.3559 3.80544 7.92651C3.3912 8.49713 3.10519 9.15053 2.96698 9.84197C3.39127 9.40439 3.88875 9.04431 4.43698 8.77797L5.36698 6.53597Z" fill="#49535B"/>
<path d="M20.854 14.327C20.6637 14.3257 20.4816 14.2495 20.347 14.1149C20.2125 13.9804 20.1363 13.7983 20.135 13.608C20.1311 12.7585 19.8569 11.9323 19.352 11.2491C18.8471 10.5659 18.1379 10.0611 17.327 9.80798C17.2317 9.78 17.1433 9.7324 17.0675 9.66823C16.9917 9.60406 16.9301 9.52473 16.8868 9.43536C16.8435 9.34598 16.8193 9.24853 16.8159 9.14926C16.8125 9.05 16.8299 8.95112 16.867 8.85898C17.2713 8.06947 17.4059 7.16921 17.25 6.29598C17.231 6.20998 17.215 6.17098 17.202 6.13298C17.1423 5.99731 17.1259 5.84652 17.155 5.70119C17.1842 5.55587 17.2575 5.42308 17.365 5.32098C17.4726 5.21735 17.6101 5.15019 17.7579 5.12902C17.9058 5.10784 18.0566 5.13371 18.189 5.20298C19.2116 5.73716 20.0678 6.54189 20.6644 7.5294C21.261 8.51691 21.5749 9.64927 21.572 10.803V13.608C21.5707 13.7981 21.4946 13.9801 21.3603 14.1146C21.226 14.2491 21.0441 14.3254 20.854 14.327ZM18.448 8.71098C19.045 8.98801 19.5847 9.37471 20.039 9.85098C19.8603 8.92023 19.41 8.06322 18.745 7.38798C18.6883 7.83743 18.5889 8.28044 18.448 8.71098Z" fill="#49535B"/>
</g>
<defs>
<clipPath id="clip0_1_25">
<rect width="23" height="23" fill="white"/>
</clipPath>
</defs>
</svg>
