<svg width="26" height="26" viewBox="0 0 26 26" fill="none" xmlns="http://www.w3.org/2000/svg">
<path fill-rule="evenodd" clip-rule="evenodd" d="M26 13C26 20.1797 20.1797 26 13 26C5.8203 26 0 20.1797 0 13C0 5.8203 5.8203 0 13 0C20.1797 0 26 5.8203 26 13ZM16.1233 8.17017C17.9317 8.79116 19.2545 9.72101 18.995 11.4515C18.8064 12.7186 18.1014 13.3315 17.1646 13.5461C18.4498 14.2126 18.8879 15.4775 18.4808 17.007C17.7081 19.2081 15.8711 19.3934 13.4279 18.9333L12.8347 21.2994L11.4025 20.9434L11.9876 18.609C11.6163 18.5172 11.2368 18.4188 10.846 18.314L10.2584 20.6597L8.82789 20.3037L9.42034 17.9328L6.53563 17.2078L7.24722 15.574C7.24722 15.574 8.30317 15.8528 8.28849 15.8325C8.69406 15.9325 8.8744 15.6691 8.9454 15.4944L10.553 9.07239C10.571 8.76921 10.4657 8.38719 9.88548 8.24251C9.90751 8.22707 8.84503 7.98485 8.84503 7.98485L9.22612 6.46084L12.1149 7.17367L12.7025 4.82954L14.1338 5.18555L13.5585 7.48335C13.9437 7.57032 14.3305 7.65892 14.7067 7.75239L15.2779 5.46922L16.71 5.82523L16.1233 8.17017ZM12.6965 12.0801C13.672 12.3388 15.7949 12.9016 16.1649 11.4259C16.5424 9.91615 14.48 9.46017 13.4701 9.23691C13.3557 9.21161 13.2548 9.1893 13.1725 9.16878L12.4593 12.0185C12.5271 12.0352 12.6068 12.0564 12.6961 12.08L12.6964 12.0801L12.6965 12.0801ZM11.591 16.668C12.7595 16.9758 15.315 17.649 15.7217 16.0229C16.1378 14.3604 13.6601 13.8066 12.4511 13.5364C12.3161 13.5062 12.1968 13.4795 12.0992 13.4553L11.3126 16.596C11.3924 16.6157 11.4859 16.6404 11.5905 16.6679L11.5909 16.668L11.591 16.668Z" fill="#8FC258"/>
</svg>
