<svg width="26" height="26" viewBox="0 0 26 26" fill="none" xmlns="http://www.w3.org/2000/svg">
<path fill-rule="evenodd" clip-rule="evenodd" d="M25.9987 13C25.9987 20.1797 20.1787 26 12.9994 26C5.82001 26 0 20.1797 0 13C0 5.8203 5.82001 0 12.9994 0C20.1787 0 25.9987 5.8203 25.9987 13ZM16.1223 8.16987C17.9306 8.79085 19.2533 9.7207 18.9938 11.4512C18.8053 12.7183 18.1003 13.3312 17.1635 13.5458C18.4487 14.2123 18.8867 15.4772 18.4797 17.0067C17.707 19.2078 15.8702 19.3931 13.4271 18.933L12.8338 21.2991L11.4017 20.9431L11.9868 18.6087C11.6155 18.5169 11.2361 18.4185 10.8452 18.3137L10.2577 20.6594L8.82726 20.3034L9.41968 17.9325L6.53511 17.2074L7.24667 15.5737C7.24667 15.5737 8.30257 15.8525 8.28788 15.8322C8.69343 15.9322 8.87377 15.6688 8.94476 15.4941L10.5523 9.07208C10.5702 8.7689 10.465 8.38689 9.8848 8.24221C9.90683 8.22676 8.8444 7.98455 8.8444 7.98455L9.22547 6.46054L12.1141 7.17337L12.7016 4.82924L14.1329 5.18525L13.5576 7.48305C13.9428 7.57002 14.3296 7.65861 14.7057 7.75208L15.2769 5.46892L16.709 5.82492L16.1223 8.16987ZM12.6956 12.0805C13.6712 12.3391 15.7939 12.9019 16.1639 11.4263C16.5414 9.91649 14.479 9.4605 13.4693 9.23724C13.3548 9.21194 13.2539 9.18963 13.1716 9.16911L12.4584 12.0188C12.5263 12.0356 12.6061 12.0567 12.6955 12.0804L12.6956 12.0805ZM11.5904 16.6684C12.7588 16.9762 15.3143 17.6494 15.7209 16.0233C16.137 14.3608 13.6594 13.807 12.4505 13.5368C12.3155 13.5066 12.1962 13.4799 12.0986 13.4557L11.312 16.5964C11.3918 16.6161 11.4852 16.6407 11.5897 16.6682L11.5901 16.6684L11.5904 16.6684Z" fill="#F7931A"/>
</svg>
