<svg width="55" height="35" viewBox="0 0 55 35" fill="none" xmlns="http://www.w3.org/2000/svg">
<path d="M0.5 4C0.5 2.067 2.067 0.5 4 0.5H51C52.933 0.5 54.5 2.067 54.5 4V31C54.5 32.933 52.933 34.5 51 34.5H4C2.067 34.5 0.5 32.933 0.5 31V4Z" fill="url(#paint0_linear_1_92)" stroke="#EDEFF1"/>
<path d="M26 34L54 26V31C54 32.6569 52.6569 34 51 34H26Z" fill="#FD6020"/>
<path fill-rule="evenodd" clip-rule="evenodd" d="M42.5024 15.1329C43.8293 15.1329 44.559 15.7132 44.559 16.8092C44.6254 17.6473 44.0283 18.3565 43.2322 18.4855L45.0234 20.871H43.6302L42.1044 18.55H41.9717V20.871H40.8439V15.1329H42.5024ZM41.9717 17.7761H42.3034C43.0332 17.7761 43.3649 17.4537 43.3649 16.8735C43.3649 16.3577 43.0332 16.0353 42.3034 16.0353H41.9717V17.7761ZM36.9299 20.871H40.1143V19.9039H38.0577V18.3565H40.0479V17.3894H38.0577V16.1H40.1143V15.1329H36.9299V20.871ZM33.6126 19.0013L32.0868 15.1329H30.8926L33.3473 20.9999H33.9443L36.399 15.1329H35.2048L33.6126 19.0013ZM20.1454 18.0345C20.1454 19.6463 21.4722 21.0002 23.1307 21.0002C23.6615 21.0002 24.1259 20.8713 24.5903 20.6779V19.3884C24.2586 19.7752 23.7942 20.0331 23.2634 20.0331C22.202 20.0331 21.3395 19.2595 21.3395 18.2279V18.0989C21.2732 17.0674 22.1356 16.1648 23.1971 16.1003C23.7278 16.1003 24.2586 16.3582 24.5903 16.745V15.4556C24.1922 15.1977 23.6615 15.1332 23.1971 15.1332C21.4722 15.0043 20.1454 16.3582 20.1454 18.0345ZM18.0889 17.3251C17.4254 17.0672 17.2264 16.9383 17.2264 16.6159C17.2928 16.2291 17.6245 15.9067 18.0225 15.9712C18.3542 15.9712 18.6859 16.1646 18.9513 16.4225L19.5484 15.6488C19.084 15.262 18.4869 15.0041 17.8898 15.0041C16.961 14.9396 16.1649 15.6488 16.0986 16.5514V16.6159C16.0986 17.3896 16.4303 17.8409 17.4918 18.1632C17.7571 18.2277 18.0225 18.3567 18.2879 18.4856C18.4869 18.6145 18.6196 18.808 18.6196 19.0659C18.6196 19.5172 18.2215 19.904 17.8235 19.904H17.7571C17.2264 19.904 16.762 19.5816 16.563 19.1303L15.8332 19.8395C16.2313 20.5487 17.0274 20.9356 17.8235 20.9356C18.885 21 19.7474 20.2264 19.8137 19.1948V19.0014C19.7474 18.2277 19.4157 17.8409 18.0889 17.3251ZM14.241 20.871H15.3688V15.1329H14.241V20.871ZM9 15.1329H10.6585H10.9903C12.5825 15.1974 13.8429 16.4868 13.7766 18.0342C13.7766 18.8723 13.3786 19.646 12.7151 20.2262C12.1181 20.6776 11.3883 20.9354 10.6585 20.871H9V15.1329ZM10.4594 19.9041C10.9901 19.9685 11.5872 19.7751 11.9852 19.4528C12.3833 19.0659 12.5823 18.5501 12.5823 17.9699C12.5823 17.4541 12.3833 16.9383 11.9852 16.5515C11.5872 16.2291 10.9901 16.0357 10.4594 16.1002H10.1277V19.9041H10.4594Z" fill="black"/>
<path fill-rule="evenodd" clip-rule="evenodd" d="M27.9735 15C26.315 15 24.9218 16.2895 24.9218 17.9657C24.9218 19.5776 26.2486 20.9315 27.9735 20.996C29.6984 21.0604 31.0253 19.7065 31.0916 18.0302C31.0253 16.3539 29.6984 15 27.9735 15V15Z" fill="#FD6020"/>
<defs>
<linearGradient id="paint0_linear_1_92" x1="-6" y1="-3" x2="62.5" y2="37.5" gradientUnits="userSpaceOnUse">
<stop stop-color="#EDEFF1"/>
<stop offset="1" stop-color="white" stop-opacity="0"/>
</linearGradient>
</defs>
</svg>
