<svg width="55" height="14" viewBox="0 0 55 14" fill="none" xmlns="http://www.w3.org/2000/svg">
<path fill-rule="evenodd" clip-rule="evenodd" d="M6.60006 0.00238037H2.32209C2.02935 0.00238037 1.78037 0.205593 1.73472 0.48152L0.0044877 10.959C-0.0299021 11.1658 0.137735 11.3522 0.357303 11.3522H2.39964C2.69239 11.3522 2.94137 11.149 2.98702 10.8725L3.45368 8.04658C3.4987 7.76982 3.74828 7.56688 4.04042 7.56688H5.39468C8.21273 7.56688 9.83901 6.26438 10.264 3.68344C10.4553 2.55429 10.2721 1.66707 9.7183 1.04554C9.1104 0.363462 8.03181 0.00238037 6.60006 0.00238037ZM7.09361 3.82914C6.85972 5.29532 5.68682 5.29532 4.55274 5.29532H3.90718L4.36006 2.55706C4.38696 2.39172 4.53708 2.26979 4.71224 2.26979H5.00811C5.78064 2.26979 6.50945 2.26979 6.88606 2.69032C7.11041 2.94136 7.1793 3.31406 7.09361 3.82914ZM19.388 3.78214H17.3393C17.1648 3.78214 17.014 3.90407 16.987 4.06968L16.8964 4.61684L16.7531 4.4186C16.3097 3.80371 15.3208 3.59828 14.3337 3.59828C12.0697 3.59828 10.1363 5.23588 9.75969 7.53315C9.56401 8.67889 9.84219 9.77458 10.5228 10.5388C11.1472 11.2413 12.0405 11.5341 13.1031 11.5341C14.9271 11.5341 15.9388 10.4138 15.9388 10.4138L15.8474 10.9576C15.8129 11.1656 15.9805 11.3519 16.1988 11.3519H18.0442C18.3377 11.3519 18.5852 11.1487 18.6316 10.8722L19.7388 4.1753C19.7738 3.96932 19.6068 3.78214 19.388 3.78214ZM16.5323 7.59038C16.3346 8.70819 15.4056 9.45856 14.2211 9.45856C13.6262 9.45856 13.1506 9.27636 12.8455 8.93104C12.5427 8.5882 12.4275 8.09994 12.5239 7.55638C12.7086 6.44797 13.6531 5.67327 14.8197 5.67327C15.4013 5.67327 15.8743 5.85768 16.1858 6.20604C16.4978 6.558 16.6217 7.04903 16.5323 7.59038ZM28.2399 3.78187H30.2986C30.5869 3.78187 30.7551 4.09069 30.5913 4.31658L23.7443 13.7562C23.6334 13.9091 23.4508 14 23.2557 14H21.1995C20.91 14 20.741 13.6887 20.9086 13.4623L23.0406 10.588L20.7731 4.23225C20.6947 4.01134 20.8654 3.78187 21.1115 3.78187H23.1344C23.3972 3.78187 23.6291 3.94665 23.7049 4.18691L24.9083 8.02556L27.7477 4.03097C27.8589 3.87504 28.0436 3.78187 28.2399 3.78187Z" fill="#253B80"/>
<path fill-rule="evenodd" clip-rule="evenodd" d="M50.5602 10.9572L52.3159 0.288094C52.3428 0.122482 52.493 0.000552961 52.6676 0H54.6441C54.8624 0 55.03 0.1869 54.9956 0.393707L53.2642 10.8707C53.219 11.1471 52.9701 11.3503 52.6768 11.3503H50.9116C50.6934 11.3503 50.5258 11.164 50.5602 10.9572ZM37.1143 0.000553712H32.8356C32.5435 0.000553712 32.2945 0.203766 32.2488 0.479694L30.5186 10.9572C30.4842 11.164 30.6518 11.3503 30.8703 11.3503H33.0657C33.2698 11.3503 33.4443 11.2082 33.4762 11.0147L33.9671 8.04475C34.0123 7.76799 34.2618 7.56506 34.5539 7.56506H35.9075C38.7261 7.56506 40.3521 6.26256 40.7774 3.68161C40.9693 2.55247 40.7849 1.66524 40.2314 1.04371C39.6238 0.361635 38.5461 0.000553712 37.1143 0.000553712ZM37.6079 3.82732C37.3746 5.29349 36.2016 5.29349 35.0669 5.29349H34.4219L34.8755 2.55523C34.9024 2.3899 35.0512 2.26797 35.2269 2.26797H35.5228C36.2948 2.26797 37.0243 2.26797 37.4006 2.68849C37.6252 2.93954 37.6936 3.31223 37.6079 3.82732ZM49.9011 3.78032H47.8539C47.6779 3.78032 47.5285 3.90224 47.5022 4.06786L47.4116 4.61501L47.2677 4.41677C46.8242 3.80188 45.8359 3.59646 44.8488 3.59646C42.5848 3.59646 40.652 5.23405 40.2754 7.53133C40.0803 8.67706 40.3573 9.77275 41.0379 10.5369C41.6634 11.2395 42.5556 11.5323 43.6183 11.5323C45.4423 11.5323 46.4537 10.412 46.4537 10.412L46.3625 10.9558C46.3281 11.1637 46.4957 11.3501 46.7154 11.3501H48.5599C48.852 11.3501 49.1009 11.1469 49.1467 10.8704L50.2545 4.17347C50.2884 3.96749 50.1208 3.78032 49.9011 3.78032ZM47.0457 7.58855C46.8491 8.70636 45.919 9.45673 44.7342 9.45673C44.1405 9.45673 43.664 9.27454 43.3586 8.92921C43.0558 8.58638 42.942 8.09811 43.0373 7.55455C43.2228 6.44614 44.1662 5.67144 45.3328 5.67144C45.9147 5.67144 46.3874 5.85585 46.6992 6.20422C47.0124 6.55618 47.1363 7.04721 47.0457 7.58855Z" fill="#179BD7"/>
</svg>
