<svg width="55" height="35" viewBox="0 0 55 35" fill="none" xmlns="http://www.w3.org/2000/svg">
<path d="M0.5 4C0.5 2.067 2.067 0.5 4 0.5H51C52.933 0.5 54.5 2.067 54.5 4V31C54.5 32.933 52.933 34.5 51 34.5H4C2.067 34.5 0.5 32.933 0.5 31V4Z" fill="url(#paint0_linear_1_112)" stroke="#EDEFF1"/>
<path fill-rule="evenodd" clip-rule="evenodd" d="M28.866 12.7617L26.5652 13.2303V11.4599L28.866 11V12.7617ZM19.5157 12.0068L17.2791 12.4581L17.2699 19.4094C17.2699 20.6937 18.2874 21.6397 19.6441 21.6397C20.3957 21.6397 20.9457 21.5095 21.2482 21.3533V19.5916C20.9549 19.7044 19.5066 20.1036 19.5066 18.8192V15.7385H21.2482V13.89H19.5066L19.5157 12.0068ZM14.0984 15.6254C13.6125 15.6254 13.3192 15.7555 13.3192 16.094C13.3192 16.4635 13.824 16.6261 14.4503 16.8277C15.4713 17.1565 16.8152 17.5892 16.8209 19.1921C16.8209 20.7455 15.51 21.6394 13.6033 21.6394C12.815 21.6394 11.9533 21.4919 11.1008 21.1447V19.0793C11.8708 19.4785 12.8425 19.7736 13.6033 19.7736C14.1167 19.7736 14.4834 19.6434 14.4834 19.2442C14.4834 18.8349 13.9361 18.6478 13.2754 18.4219C12.2693 18.0779 11 17.644 11 16.1981C11 14.6621 12.2375 13.7422 14.0984 13.7422C14.8592 13.7422 15.6109 13.855 16.3717 14.1414V16.1808C15.675 15.825 14.795 15.6254 14.0984 15.6254ZM40.6907 13.7422C42.8632 13.7422 43.9999 15.4952 43.9999 17.7168C43.9999 17.8368 43.9938 18.0374 43.9886 18.2075L43.9886 18.2078C43.9848 18.3329 43.9815 18.4414 43.9815 18.4892H39.499C39.5999 19.5132 40.3882 19.8083 41.2774 19.8083C42.1849 19.8083 42.8999 19.626 43.5232 19.331V21.0666C42.8999 21.3964 42.0749 21.6307 40.984 21.6307C38.7474 21.6307 37.189 20.3116 37.189 17.6995C37.189 15.4952 38.509 13.7422 40.6907 13.7422ZM40.6814 15.5044C40.1039 15.5044 39.4714 15.9123 39.4714 16.8929H41.8365C41.8365 15.9123 41.2406 15.5044 40.6814 15.5044ZM24.0993 14.5317L23.9526 13.8895H21.9726V21.483H24.2643V16.3368C24.8051 15.6685 25.7218 15.79 26.006 15.8855V13.8895C25.7126 13.7854 24.6401 13.5944 24.0993 14.5317ZM26.5649 13.8896H28.8658V21.4831H26.5649V13.8896ZM33.6507 13.7422C32.7524 13.7422 32.1749 14.1414 31.854 14.4191L31.7349 13.881H29.7182V23.9999L32.0099 23.5399L32.019 21.084C32.349 21.3096 32.8349 21.6307 33.6415 21.6307C35.2824 21.6307 36.7765 20.381 36.7765 17.63C36.7674 15.1134 35.2549 13.7422 33.6507 13.7422ZM33.1006 19.7222C32.5598 19.7222 32.239 19.5399 32.019 19.3143L32.0098 16.0947C32.2481 15.843 32.5781 15.6694 33.1006 15.6694C33.9348 15.6694 34.5123 16.5546 34.5123 17.6915C34.5123 18.8543 33.944 19.7222 33.1006 19.7222Z" fill="#6461FC"/>
<defs>
<linearGradient id="paint0_linear_1_112" x1="-6" y1="-3" x2="62.5" y2="37.5" gradientUnits="userSpaceOnUse">
<stop stop-color="#EDEFF1"/>
<stop offset="1" stop-color="white" stop-opacity="0"/>
</linearGradient>
</defs>
</svg>
