<svg width="26" height="26" viewBox="0 0 26 26" fill="none" xmlns="http://www.w3.org/2000/svg">
<path fill-rule="evenodd" clip-rule="evenodd" d="M12.9512 0C14.9848 0 16.9106 0.475336 18.6259 1.31924C18.8953 1.44752 19.164 1.58865 19.4335 1.74447L18.2412 2.81555L16.4499 0.956444L13.4266 3.66313L11.6309 1.69594L5.99903 6.79138L9.60958 10.7853L8.19071 12.0379L11.7469 16.0379L10.3364 17.2876L15.4181 22.9651L18.4346 20.1777L21.0426 23.1648C20.5238 23.5695 19.9588 23.9504 19.3362 24.3025C17.4503 25.382 15.2707 26 12.9512 26C5.81791 26 0 20.1596 0 13.0004C0 5.83966 5.81791 0 12.9512 0ZM10.5908 12.1786L13.6706 9.39481L16.4438 12.4869L13.3643 15.2696L10.5908 12.1786ZM15.8608 14.7371L12.7808 17.5201L15.5545 20.6122L18.6342 17.8284L15.8608 14.7371ZM8.38696 6.89945L11.4667 4.11642L14.2391 7.20768L11.1594 9.99071L8.38696 6.89945ZM16.3484 3.31418L14.0386 5.40125L16.1181 7.72048L18.4279 5.63262L16.3484 3.31418ZM18.1426 14.9628L20.4532 12.875L22.5327 15.1939L20.2229 17.2813L18.1426 14.9628ZM22.4841 17.558L20.1748 19.6461L22.2544 21.9638L24.5642 19.8764L22.4841 17.558ZM21.105 8.91282L22.6449 7.52118L24.0311 9.06681L22.492 10.4582L21.105 8.91282ZM20.6776 2.92929L19.1377 4.32067L20.5239 5.8663L22.064 4.47492L20.6776 2.92929ZM23.0737 13.5052L24.6136 12.1136L26.0001 13.659L24.4602 15.0506L23.0737 13.5052ZM18.4773 7.97571L16.1677 10.0638L18.2478 12.3815L20.5568 10.2942L18.4773 7.97571Z" fill="#0068A3"/>
</svg>
