<svg width="107" height="35" viewBox="0 0 107 35" fill="none" xmlns="http://www.w3.org/2000/svg">
<rect x="15" width="92" height="35" fill="#FFEEEE"/>
<path d="M0 0H15V18L0 0Z" fill="#FFEEEE"/>
<path d="M0 35L15 35L15 17L0 35Z" fill="#FFEEEE"/>
<path d="M41.998 23.21C41.2093 23.21 40.5117 23.049 39.905 22.727C39.303 22.4003 38.8317 21.9453 38.491 21.362C38.1503 20.774 37.98 20.0833 37.98 19.29V12.927L39.464 12.92V19.213C39.464 19.6423 39.5363 20.0203 39.681 20.347C39.8257 20.6737 40.0193 20.9467 40.262 21.166C40.5047 21.3853 40.7753 21.551 41.074 21.663C41.3773 21.775 41.6853 21.831 41.998 21.831C42.3153 21.831 42.6233 21.775 42.922 21.663C43.2253 21.5463 43.4983 21.3783 43.741 21.159C43.9837 20.9397 44.175 20.6667 44.315 20.34C44.4597 20.0133 44.532 19.6377 44.532 19.213V12.92H46.016V19.29C46.016 20.0787 45.8457 20.767 45.505 21.355C45.1643 21.943 44.6907 22.4003 44.084 22.727C43.482 23.049 42.7867 23.21 41.998 23.21ZM53.2801 23V19.283C53.2801 18.989 53.2545 18.688 53.2031 18.38C53.1565 18.0673 53.0631 17.778 52.9231 17.512C52.7878 17.246 52.5941 17.0313 52.3421 16.868C52.0948 16.7047 51.7705 16.623 51.3691 16.623C51.1078 16.623 50.8605 16.6673 50.6271 16.756C50.3938 16.84 50.1885 16.9777 50.0111 17.169C49.8385 17.3603 49.7008 17.6123 49.5981 17.925C49.5001 18.2377 49.4511 18.618 49.4511 19.066L48.5411 18.723C48.5411 18.037 48.6695 17.4327 48.9261 16.91C49.1828 16.3827 49.5515 15.972 50.0321 15.678C50.5128 15.384 51.0938 15.237 51.7751 15.237C52.2978 15.237 52.7365 15.321 53.0911 15.489C53.4458 15.657 53.7328 15.8787 53.9521 16.154C54.1761 16.4247 54.3465 16.721 54.4631 17.043C54.5798 17.365 54.6591 17.68 54.7011 17.988C54.7431 18.296 54.7641 18.5667 54.7641 18.8V23H53.2801ZM47.9671 23V15.44H49.2761V17.624H49.4511V23H47.9671ZM60.1364 23.21C59.4131 23.21 58.8064 23.035 58.3164 22.685C57.8264 22.3303 57.4554 21.852 57.2034 21.25C56.9514 20.648 56.8254 19.969 56.8254 19.213C56.8254 18.457 56.9491 17.778 57.1964 17.176C57.4484 16.574 57.8171 16.1003 58.3024 15.755C58.7924 15.405 59.3944 15.23 60.1084 15.23C60.8178 15.23 61.4291 15.405 61.9424 15.755C62.4604 16.1003 62.8594 16.574 63.1394 17.176C63.4194 17.7733 63.5594 18.4523 63.5594 19.213C63.5594 19.969 63.4194 20.6503 63.1394 21.257C62.8641 21.859 62.4698 22.335 61.9564 22.685C61.4478 23.035 60.8411 23.21 60.1364 23.21ZM56.5804 26.36V15.44H57.8824V20.879H58.0504V26.36H56.5804ZM59.9334 21.887C60.4001 21.887 60.7851 21.768 61.0884 21.53C61.3964 21.292 61.6251 20.9723 61.7744 20.571C61.9284 20.165 62.0054 19.7123 62.0054 19.213C62.0054 18.7183 61.9284 18.2703 61.7744 17.869C61.6251 17.4677 61.3941 17.148 61.0814 16.91C60.7688 16.672 60.3698 16.553 59.8844 16.553C59.4271 16.553 59.0491 16.665 58.7504 16.889C58.4564 17.113 58.2371 17.4257 58.0924 17.827C57.9524 18.2283 57.8824 18.6903 57.8824 19.213C57.8824 19.7357 57.9524 20.1977 58.0924 20.599C58.2324 21.0003 58.4541 21.3153 58.7574 21.544C59.0608 21.7727 59.4528 21.887 59.9334 21.887ZM67.24 23.21C66.68 23.21 66.211 23.1073 65.833 22.902C65.455 22.692 65.168 22.4167 64.972 22.076C64.7807 21.7307 64.685 21.3527 64.685 20.942C64.685 20.5593 64.7527 20.2233 64.888 19.934C65.0233 19.6447 65.224 19.3997 65.49 19.199C65.756 18.9937 66.0827 18.828 66.47 18.702C66.806 18.604 67.1863 18.5177 67.611 18.443C68.0357 18.3683 68.4813 18.2983 68.948 18.233C69.4193 18.1677 69.886 18.1023 70.348 18.037L69.816 18.331C69.8253 17.7383 69.6993 17.2997 69.438 17.015C69.1813 16.7257 68.738 16.581 68.108 16.581C67.7113 16.581 67.3473 16.6743 67.016 16.861C66.6847 17.043 66.4537 17.3463 66.323 17.771L64.958 17.351C65.1447 16.7023 65.4993 16.1867 66.022 15.804C66.5493 15.4213 67.2493 15.23 68.122 15.23C68.7987 15.23 69.3867 15.3467 69.886 15.58C70.39 15.8087 70.7587 16.1727 70.992 16.672C71.1133 16.9193 71.188 17.1807 71.216 17.456C71.244 17.7313 71.258 18.0277 71.258 18.345V23H69.963V21.271L70.215 21.495C69.9023 22.0737 69.5033 22.5053 69.018 22.79C68.5373 23.07 67.9447 23.21 67.24 23.21ZM67.499 22.013C67.9143 22.013 68.2713 21.9407 68.57 21.796C68.8687 21.6467 69.109 21.4577 69.291 21.229C69.473 21.0003 69.592 20.7623 69.648 20.515C69.7273 20.291 69.7717 20.039 69.781 19.759C69.795 19.479 69.802 19.255 69.802 19.087L70.278 19.262C69.816 19.332 69.396 19.395 69.018 19.451C68.64 19.507 68.297 19.563 67.989 19.619C67.6857 19.6703 67.415 19.7333 67.177 19.808C66.9763 19.878 66.7967 19.962 66.638 20.06C66.484 20.158 66.3603 20.277 66.267 20.417C66.1783 20.557 66.134 20.7273 66.134 20.928C66.134 21.124 66.183 21.306 66.281 21.474C66.379 21.6373 66.5283 21.768 66.729 21.866C66.9297 21.964 67.1863 22.013 67.499 22.013ZM73.2157 14.201V12.78H74.6787V14.201H73.2157ZM73.2157 23V15.44H74.6787V23H73.2157ZM79.7838 23.21C79.0791 23.21 78.4701 23.035 77.9568 22.685C77.4481 22.335 77.0538 21.859 76.7738 21.257C76.4984 20.6503 76.3608 19.969 76.3608 19.213C76.3608 18.4523 76.5008 17.7733 76.7808 17.176C77.0608 16.574 77.4574 16.1003 77.9708 15.755C78.4888 15.405 79.1024 15.23 79.8118 15.23C80.5258 15.23 81.1254 15.405 81.6108 15.755C82.1008 16.1003 82.4694 16.574 82.7168 17.176C82.9688 17.778 83.0948 18.457 83.0948 19.213C83.0948 19.969 82.9688 20.648 82.7168 21.25C82.4648 21.852 82.0938 22.3303 81.6038 22.685C81.1138 23.035 80.5071 23.21 79.7838 23.21ZM79.9868 21.887C80.4674 21.887 80.8594 21.7727 81.1628 21.544C81.4661 21.3153 81.6878 21.0003 81.8278 20.599C81.9678 20.1977 82.0378 19.7357 82.0378 19.213C82.0378 18.6903 81.9654 18.2283 81.8208 17.827C81.6808 17.4257 81.4614 17.113 81.1628 16.889C80.8688 16.665 80.4931 16.553 80.0358 16.553C79.5504 16.553 79.1514 16.672 78.8388 16.91C78.5261 17.148 78.2928 17.4677 78.1388 17.869C77.9894 18.2703 77.9148 18.7183 77.9148 19.213C77.9148 19.7123 77.9894 20.165 78.1388 20.571C78.2928 20.9723 78.5214 21.292 78.8248 21.53C79.1328 21.768 79.5201 21.887 79.9868 21.887ZM82.0378 23V17.561H81.8698V12.92H83.3398V23H82.0378Z" fill="#FF6B6B"/>
</svg>
