<svg width="55" height="55" viewBox="0 0 55 55" fill="none" xmlns="http://www.w3.org/2000/svg">
<g clip-path="url(#clip0_1_293)">
<path d="M33.0031 6.50195C20.8511 6.50195 11.0031 15.907 11.0031 27.496C11.0031 39.085 20.8481 48.496 33.0031 48.496C45.1581 48.496 55.0031 39.091 55.0031 27.496C55.0031 15.901 45.1551 6.50195 33.0031 6.50195ZM33.0031 44.319C23.2661 44.319 15.3761 36.789 15.3761 27.496C15.3761 18.203 23.2661 10.682 33.0031 10.682C42.7401 10.682 50.6201 18.212 50.6201 27.496C50.6201 36.78 42.7261 44.319 33.0031 44.319Z" fill="white"/>
<path d="M49.29 45.992C46.598 48.8491 43.3479 51.1229 39.741 52.6724C36.1342 54.2219 32.2476 55.0141 28.322 55C12.679 55 -0.000976562 42.681 -0.000976562 27.5C-0.000976562 12.319 12.679 -2.58508e-05 28.322 -2.58508e-05C32.2377 -0.0153078 36.1149 0.771951 39.7145 2.31316C43.3141 3.85437 46.5597 6.11684 49.251 8.96098C44.5484 4.69932 38.4659 2.27769 32.121 2.14098C18.021 2.51798 6.73203 13.733 6.73203 27.495C6.73203 41.257 18.022 52.472 32.121 52.849C38.4843 52.7116 44.5829 50.276 49.29 45.992Z" fill="#2BAB89"/>
<path d="M47.593 27.497C47.593 35.274 40.843 41.582 32.511 41.582C29.7707 41.5922 27.075 40.8888 24.689 39.541C26.4919 40.2826 28.4235 40.6612 30.373 40.655C38.162 40.655 44.473 34.767 44.473 27.497C44.473 20.227 38.165 14.344 30.373 14.344C28.4236 14.3378 26.4921 14.716 24.689 15.457C27.0759 14.1099 29.7723 13.4072 32.513 13.418C40.843 13.418 47.593 19.725 47.593 27.497Z" fill="#2BAB89"/>
</g>
<defs>
<clipPath id="clip0_1_293">
<rect width="55" height="55" fill="white"/>
</clipPath>
</defs>
</svg>
